# xmcd CD database file
#
# Track frame offsets:
#	150
#	14522
#	34025
#	50482
#	64212
#	73307
#	81930
#	92637
#	102382
#	122827
#	129975
#	149880
#	169120
#	180817
#	194507
#	208077
#	217065
#	224942
#	238857
#	255912
#
# Disc length: 3572 seconds
#
# Revision: 1
# Processed by: cddbd v1.5.1PL2 Copyright (c) Steve Scherf et al.
# Submitted via: CDex 1.51
#
DISCID=3f0df214
DTITLE=Various Artist - The Best of Negro Spirituals
DYEAR=1900
DGENRE=
TTITLE0=Deep River/Robert Shaw Chorale
TTITLE1=Nobody Knows (Duh Trouble I See)/Robert Shaw Chorale
TTITLE2=Swing Low, Sweet Chariot/Robert Shaw Chorale
TTITLE3=Sometimes I Feel Like a Motherless Child/Marian Anderson
TTITLE4=He's Got the Whole World in His Hands/Marian Anderson
TTITLE5=Hard Trials/Marian Anderson
TTITLE6=Let Us Break Bread Together on Our Knees/Leontyne Price
TTITLE7=His Name so Sweet/Leontyne Price
TTITLE8=Were You There?/Leontyne Price
TTITLE9=Lord, If I Got My Ticket/Robert Shaw Chorale
TTITLE10=Go Down Moses/Robert Shaw Chorale
TTITLE11=Steal Away/Robert Shaw Chorale
TTITLE12=I am Bound for de Kingdom/Marian Anderson
TTITLE13=Oh, Heaven is One Beautiful Place, I Know/Marian Anderson
TTITLE14=He'll Bring it to Pass/Marian Anderson
TTITLE15=Soon-a Will Be Done/Robert Shaw Chorale
TTITLE16=Every Time I Feel the Spirit/Robert Shaw Chorale
TTITLE17=I Wish I Knew How it Would Feel to Be Free/Leontyne Price
TTITLE18=I Couldn't Hear Nobody Pray/Leontyne Price
TTITLE19=Amazing Grace/Leontyne Price
EXTD=
EXTT0=
EXTT1=
EXTT2=
EXTT3=
EXTT4=
EXTT5=
EXTT6=
EXTT7=
EXTT8=
EXTT9=
EXTT10=
EXTT11=
EXTT12=
EXTT13=
EXTT14=
EXTT15=
EXTT16=
EXTT17=
EXTT18=
EXTT19=
PLAYORDER=
